From a HD source compressed with SUPER and includes the 

Columbus Dispatch for the week. Questions, comments, 

complaints, suggestions always welcome. Enjoy and please 

share. GO BUCKS!!!!! BEAT ILLINOIS!!!!!!                       

                                                               

                                                               

                                                               

OSU_Eastern_Michigan_1st_Quarter_2010-09-25.avi
Format                           : AVI
Format/Info                      : Audio Video Interleave
Format profile                   : OpenDML
File size                        : 1.30 GiB
Duration                         : 41mn 23s
Overall bit rate                 : 4 495 Kbps
Movie name                       : 

OSU_Eastern_Michigan_1st_Quarter_2010-09-25.mpg
Director                         : 

created.with.SUPER(C).v2009.bld.35
Writing application              : SUPER(C)   

Video
ID                               : 0
Format                           : MPEG-4 Visual
Format profile                   : Simple@L3
Format settings, BVOP            : No
Format settings, QPel            : No
Format settings, GMC             : No warppoints
Format settings, Matrix          : Default (H.263)
Codec ID                         : XVID
Codec ID/Hint                    : XviD
Duration                         : 41mn 23s
Bit rate                         : 4 370 Kbps
Width                            : 1 280 pixels
Height                           : 720 pixels
Display aspect ratio             : 16:9
Frame rate                       : 29.970 fps
Resolution                       : 8 bits
Colorimetry                      : 4:2:0
Scan type                        : Progressive
Bits/(Pixel*Frame)               : 0.158
Stream size                      : 1.26 GiB (97%)
Writing library                  : XviD 1.1.2 (UTC 2006-11-01)

Audio
ID                               : 1
Format                           : MPEG Audio
Format version                   : Version 1
Format profile                   : Layer 3
Mode                             : Joint stereo
Format_Settings_ModeExtension    : MS Stereo
Codec ID                         : 55
Codec ID/Hint                    : MP3
Duration                         : 41mn 23s
Bit rate mode                    : Constant
Bit rate                         : 112 Kbps
Channel(s)                       : 2 channels
Sampling rate                    : 32.0 KHz
Stream size                      : 33.2 MiB (2%)
Alignment                        : Aligned on interleaves
Interleave, duration             : 36 ms (1.08 video frame)
Interleave, preload duration     : 36 ms

